<?xml version="1.0" standalone="no"?>
<!DOCTYPE svg PUBLIC "-//W3C//DTD SVG 20010904//EN"
 "http://www.w3.org/TR/2001/REC-SVG-20010904/DTD/svg10.dtd">
<svg version="1.0" xmlns="http://www.w3.org/2000/svg"
 width="450.000000pt" height="675.000000pt" viewBox="0 0 450.000000 675.000000"
 preserveAspectRatio="xMidYMid meet">
<metadata>
Created by potrace 1.10, written by Peter Selinger 2001-2011
</metadata>
<g transform="translate(0.000000,675.000000) scale(0.050000,-0.050000)"
fill="#000000" stroke="none">
<path d="M4669 11856 c108 -63 193 -189 206 -306 l11 -94 -104 104 c-238 238
-820 373 -1037 240 -79 -48 -82 -62 -10 -49 34 6 92 -8 155 -38 l100 -48 -80
-14 c-44 -7 -119 -28 -167 -45 -215 -77 -480 39 -484 210 0 30 -4 29 -30 -5
-46 -61 -36 -194 20 -278 l50 -73 -51 -12 c-324 -82 -707 65 -573 219 23 26
10 21 -38 -14 -138 -103 -179 -321 -87 -457 l50 -73 -109 -50 c-59 -27 -150
-88 -202 -136 -168 -155 -386 -115 -452 81 -24 70 -25 71 -39 22 -47 -164 4
-345 128 -454 77 -68 75 -75 -36 -132 -154 -78 -289 -274 -290 -422 l0 -78 59
81 c110 152 317 281 230 144 -65 -103 -109 -225 -109 -301 0 -113 -240 -229
-317 -153 -21 20 -23 13 -12 -35 37 -154 158 -288 235 -259 21 8 15 -17 -21
-89 -33 -67 -52 -147 -58 -236 l-9 -136 49 97 c79 156 87 151 87 -61 0 -108
10 -259 22 -336 13 -77 33 -225 45 -330 12 -104 35 -261 50 -347 16 -87 29
-160 29 -163 0 -3 -37 4 -81 15 -194 49 -327 -196 -353 -645 -19 -345 16 -430
356 -851 253 -314 278 -334 411 -326 57 4 103 3 102 -3 -5 -21 30 -155 67
-256 21 -58 38 -123 38 -144 0 -21 11 -44 23 -52 16 -10 20 -4 11 19 -26 69 5
29 74 -94 83 -148 169 -650 172 -1003 0 -11 -56 -20 -125 -21 -213 -2 -321
-85 -621 -479 -361 -473 -272 -415 -1114 -716 -137 -49 -383 -123 -545 -165
l-295 -77 0 -1516 0 -1516 4500 0 4500 0 0 1488 0 1489 -155 50 c-467 152
-1186 352 -1268 353 -18 0 -72 32 -119 71 -89 75 -200 138 -311 176 -93 33
-269 262 -392 511 -184 375 -305 452 -602 383 l-76 -18 13 294 c17 375 58 696
98 773 18 33 32 70 32 83 0 27 98 247 125 282 14 18 33 10 76 -33 83 -83 176
-53 178 58 0 17 -11 8 -25 -20 -31 -62 -86 -74 -135 -29 -47 42 -50 69 -8 69
17 0 59 14 93 32 51 26 65 27 80 5 12 -17 15 29 7 128 -9 104 -6 155 9 155 40
0 64 -108 50 -230 -7 -66 -15 -142 -18 -168 -9 -78 -59 -99 -196 -84 -8 1 -38
27 -67 57 -44 46 -49 48 -31 11 73 -144 299 -132 313 16 25 263 51 314 316
618 43 50 111 158 151 240 166 344 35 1084 -190 1079 -26 0 -18 -9 25 -28 89
-39 186 -241 208 -435 51 -439 12 -562 -311 -970 -154 -195 -175 -210 -191
-142 -27 118 -106 69 -91 -58 13 -121 -60 -218 -131 -174 -14 9 -18 5 -9 -9
21 -34 -58 -29 -87 6 -18 22 -19 38 -1 65 21 33 22 33 10 -4 -10 -33 -8 -35
14 -14 16 16 25 71 24 140 -1 63 2 93 7 67 10 -59 63 -2 64 70 1 27 34 67 92
110 324 239 349 272 349 461 -1 127 -48 238 -147 345 -76 82 -89 103 -50 79
16 -10 20 -4 11 20 -8 19 -6 29 4 23 10 -6 29 3 43 20 14 18 39 25 57 18 18
-8 59 -15 92 -16 50 -3 61 -12 66 -60 5 -39 16 -53 35 -45 23 8 29 -10 30 -84
2 -118 35 -58 38 67 7 406 -252 405 -463 -3 l-65 -126 37 -96 c54 -138 60
-212 24 -278 -37 -67 -172 -223 -172 -198 0 9 8 71 19 138 50 328 82 560 103
747 12 113 31 205 41 205 11 0 13 -10 5 -23 -9 -15 -5 -18 9 -9 13 8 19 22 14
31 -15 24 62 86 156 127 60 25 67 32 26 24 -55 -11 -57 -9 -48 54 5 36 20 152
34 256 13 105 42 283 64 396 23 113 42 295 44 404 3 214 26 233 82 69 l26 -76
14 62 c19 85 -19 276 -77 388 -50 98 -49 117 10 117 69 0 177 182 178 298 0
23 -6 23 -35 -2 -97 -84 -237 2 -285 175 -14 49 -61 139 -104 200 -43 60 -70
109 -61 109 33 0 200 -117 232 -162 54 -77 42 11 -19 142 -92 199 -253 340
-388 340 -41 0 -41 0 3 60 59 79 75 279 31 380 -30 68 -31 68 -32 16 -3 -79
-38 -159 -97 -221 -73 -77 -75 -74 -76 100 0 189 -34 267 -184 423 -59 62 -98
92 -86 68 27 -56 27 -203 -1 -283 -27 -77 -27 -77 -104 0 -81 81 -194 130
-339 148 -102 12 -112 17 -95 50 51 95 -55 451 -116 390 -6 -7 -1 -22 12 -35
44 -44 29 -209 -26 -296 -54 -86 -90 -103 -90 -42 0 223 -310 494 -610 532
l-100 13 79 -47z m-62 -1521 c-7 -12 -4 -15 8 -8 29 18 85 -130 85 -224 0
-118 -96 -290 -170 -305 l-60 -12 56 -15 c176 -49 614 160 614 293 0 10 10 12
23 4 14 -8 18 -5 10 7 -26 42 9 148 41 122 97 -81 136 -307 77 -448 l-29 -69
64 33 c143 73 238 159 302 272 l66 116 63 -118 c74 -139 82 -244 23 -303 -22
-22 -35 -40 -29 -40 39 0 137 73 205 152 l79 93 52 -88 c69 -117 105 -285 75
-350 -12 -27 -22 -54 -22 -60 0 -15 126 14 152 36 22 17 36 -8 77 -132 7 -22
31 -134 53 -250 22 -116 59 -269 82 -340 78 -239 6 -1297 -121 -1793 -48 -184
-93 -302 -107 -276 -5 10 -7 7 -3 -7 8 -35 -28 -125 -51 -125 -11 0 -23 16
-27 35 -4 19 -15 -12 -23 -70 -9 -58 -24 -100 -34 -94 -10 6 -19 0 -20 -15 -1
-14 -9 -3 -18 24 l-16 50 -2 -53 c-3 -72 -22 -119 -44 -106 -10 6 -18 -12 -18
-40 0 -60 -15 -64 -53 -16 -26 33 -27 33 -15 0 7 -19 6 -68 -1 -108 l-14 -73
-47 98 -47 98 -2 -120 c-2 -172 -18 -222 -53 -175 -25 33 -27 33 -28 -5 -1
-33 -8 -29 -36 20 l-34 60 -12 -120 c-6 -66 -13 -105 -15 -86 -1 18 -10 38
-19 43 -9 6 -12 -22 -7 -61 5 -48 1 -67 -14 -58 -13 8 -27 -8 -35 -40 l-14
-54 -25 58 c-16 37 -26 45 -27 24 -5 -98 -74 -172 -86 -91 -5 37 -14 28 -51
-50 -42 -88 -79 -134 -52 -65 23 61 -24 27 -63 -45 -54 -101 -174 -162 -192
-98 -13 46 -36 11 -63 -97 -9 -36 -11 -36 -13 5 -2 43 -42 67 -42 25 0 -11 -9
-20 -20 -20 -11 0 -20 17 -20 39 0 21 -8 43 -17 49 -10 6 -14 -14 -9 -44 7
-51 6 -50 -32 16 -22 39 -41 62 -41 53 -1 -10 -14 -7 -31 7 -25 21 -30 18 -30
-14 0 -63 -23 -70 -74 -23 -25 24 -46 36 -46 27 0 -10 -13 0 -29 21 -23 30
-30 32 -31 9 -1 -20 -13 -14 -40 20 -33 42 -39 44 -40 14 0 -20 -8 -31 -18
-25 -10 6 -24 -5 -32 -24 -10 -27 -21 -15 -47 53 -54 143 -123 173 -115 49 4
-53 3 -72 -2 -40 -6 39 -18 53 -37 45 -16 -6 -29 0 -30 14 0 13 -13 2 -28 -26
l-27 -49 -19 69 -18 70 -28 -76 c-15 -42 -38 -71 -51 -66 -13 5 -29 -10 -36
-34 -10 -37 -15 -39 -31 -14 -19 29 -78 -19 -80 -66 -1 -8 -14 -4 -29 10 -15
14 -24 33 -19 41 5 8 2 15 -8 15 -9 0 -33 -28 -53 -62 -25 -42 -42 -54 -52
-39 -11 18 -17 17 -26 -5 -6 -15 -29 -33 -52 -39 -35 -9 -38 -5 -22 26 36 66
21 83 -36 42 -66 -47 -115 -29 -99 35 14 51 1 53 -52 7 -38 -34 -39 -33 -28
11 10 38 7 42 -17 23 -23 -20 -28 -15 -28 22 0 45 -1 46 -29 8 -31 -41 -41
-13 -36 91 2 24 -4 22 -24 -5 -24 -33 -28 -30 -53 29 -48 117 -118 160 -118
73 0 -49 -34 -47 -49 1 -7 21 -26 43 -42 50 -18 6 -30 39 -30 86 -1 57 -6 66
-17 37 -13 -33 -18 -29 -31 30 l-16 69 -15 -60 c-9 -33 -17 -46 -19 -30 -3 21
-9 19 -21 -10 -26 -60 -26 112 0 184 l20 56 -46 -55 -46 -55 -24 68 c-44 119
-91 139 -77 32 8 -64 7 -75 -6 -40 -9 28 -19 100 -20 160 -3 81 -8 99 -21 70
-14 -32 -17 -25 -19 35 -1 83 -13 92 -53 40 -23 -30 -24 -25 -7 35 26 94 24
98 -22 43 -21 -26 -39 -40 -39 -30 0 9 -9 4 -20 -13 -16 -24 -19 -21 -20 16 0
31 8 42 25 32 20 -11 20 -8 0 13 -14 15 -25 52 -25 82 0 30 -10 61 -23 69 -14
9 -18 5 -9 -9 8 -12 5 -39 -6 -58 -17 -29 -21 -23 -22 35 0 53 -5 63 -20 40
-19 -29 -33 30 -21 89 2 11 -9 29 -24 40 -37 27 -143 361 -127 402 6 18 3 26
-8 19 -11 -7 -20 10 -20 38 0 27 -9 72 -19 100 -71 187 -110 1257 -51 1407 23
60 127 514 184 806 l9 52 87 -44 c105 -53 260 -35 171 20 -26 17 -81 131 -81
169 1 53 98 246 118 233 11 -6 26 -1 34 12 9 14 6 18 -9 9 -13 -8 -23 -5 -23
6 0 11 8 25 18 31 23 14 66 -38 47 -58 -8 -8 -1 -11 15 -8 17 4 28 -5 25 -19
-4 -15 2 -22 11 -16 10 6 39 -5 66 -24 47 -33 240 -88 256 -73 5 5 -7 55 -25
111 -42 132 -44 201 -3 185 19 -7 30 1 30 22 0 32 74 191 89 191 4 0 -1 -33
-12 -73 -28 -99 57 -267 181 -362 80 -61 141 -76 86 -21 -34 34 -30 78 15 178
l38 86 14 -59 c48 -215 71 -250 200 -315 87 -44 230 -68 187 -31 -113 96 -120
165 -20 216 70 36 199 194 204 249 1 12 9 -4 18 -35 20 -67 -3 -142 -66 -211
-48 -52 -61 -59 170 95 191 126 354 338 356 463 l1 50 50 -56 c27 -31 44 -67
36 -79z m-2691 -2559 c119 -56 137 -94 162 -346 29 -291 29 -291 -25 -185 -99
196 -281 383 -362 371 -109 -16 -179 -227 -142 -426 15 -77 28 -116 29 -86 3
76 75 262 127 328 36 46 38 53 9 42 -45 -17 -43 -9 12 43 l47 43 47 -50 c26
-27 41 -50 34 -50 -7 0 -30 19 -51 42 -25 26 -44 33 -52 20 -16 -27 5 -67 28
-53 9 6 40 -8 69 -31 28 -22 52 -34 52 -26 0 9 13 -2 28 -23 25 -34 25 -41 0
-55 -16 -9 -24 -25 -17 -35 6 -10 -1 -14 -15 -9 -16 6 -47 -27 -78 -85 -141
-256 -84 -532 133 -648 198 -107 261 -198 318 -462 12 -57 -82 -79 -180 -42
-53 21 -510 605 -564 722 -120 263 -53 834 119 1006 69 69 117 68 272 -5z
m215 -838 c16 -103 35 -215 41 -248 l12 -60 -61 58 c-34 32 -57 65 -52 74 5 8
1 21 -10 27 -10 7 -14 27 -7 45 9 22 5 28 -11 18 -14 -9 -23 -2 -23 18 0 38
67 270 75 261 3 -3 19 -90 36 -193z m3971 -1691 c-11 -108 -25 -309 -32 -447
-6 -137 -20 -362 -31 -500 -33 -450 -37 -511 -22 -450 17 74 55 69 48 -6 l-6
-54 30 50 c16 28 30 40 30 28 4 -117 -413 -558 -713 -755 -245 -160 -257 -166
-257 -115 0 22 7 35 15 29 9 -5 16 16 16 47 0 31 31 146 69 255 81 235 82 274
1 66 -30 -80 -71 -163 -90 -185 -73 -83 -153 -282 -119 -294 10 -3 -47 -50
-126 -104 -123 -84 -574 -418 -728 -539 -54 -42 -40 -51 -316 198 -77 70 -163
145 -191 167 -48 38 -48 41 -15 75 19 20 35 25 35 13 0 -12 -11 -26 -24 -31
-26 -8 -4 -55 26 -55 11 0 14 10 6 23 -9 14 -5 18 9 9 13 -8 23 -26 23 -41 0
-14 15 -38 33 -53 22 -19 15 7 -21 78 -36 71 -64 104 -86 100 -49 -9 -104 94
-70 128 22 21 24 20 13 -9 -8 -20 -4 -35 8 -35 12 0 17 -16 10 -35 -8 -28 -7
-29 9 -7 21 29 13 73 -22 117 -13 17 -11 25 7 25 20 0 18 7 -4 25 -31 25 -297
574 -297 613 0 11 -10 26 -22 33 -32 20 -10 -42 119 -331 80 -179 111 -271
108 -325 -2 -41 5 -75 15 -75 11 0 20 -20 20 -45 0 -25 13 -70 29 -101 28 -53
23 -51 -91 30 -66 47 -187 133 -270 190 -215 149 -350 266 -335 291 7 12 4 16
-6 9 -20 -12 -129 107 -198 216 l-37 60 40 -35 c50 -43 76 -45 61 -5 -7 17 -3
30 8 30 35 0 17 549 -31 950 -6 44 -19 179 -30 300 -11 121 -25 261 -32 312
-10 73 -6 95 19 104 29 11 93 -50 93 -89 0 -8 50 -62 111 -119 77 -74 103
-110 85 -120 -18 -12 -14 -20 15 -31 39 -14 109 -82 109 -105 0 -7 25 -29 55
-49 30 -20 39 -31 20 -25 -29 9 -31 5 -12 -26 13 -20 38 -33 56 -28 36 9 188
-127 171 -154 -6 -9 0 -24 13 -32 15 -9 18 -5 8 14 -8 15 11 1 41 -32 30 -33
63 -58 73 -55 10 4 13 -3 6 -13 -6 -11 -2 -25 9 -32 11 -7 17 -19 12 -26 -4
-8 5 -26 20 -40 15 -14 28 -18 28 -10 0 9 18 -11 40 -44 22 -33 36 -72 30 -86
-5 -14 -2 -21 7 -16 33 20 312 -337 291 -372 -6 -9 -3 -15 7 -11 31 9 129
-122 113 -150 -8 -14 -7 -18 2 -10 9 8 30 4 46 -10 16 -13 0 33 -35 103 -42
83 -62 148 -56 184 4 32 0 51 -11 44 -12 -7 -16 14 -10 51 7 48 1 63 -22 64
-18 1 45 24 138 50 94 26 188 44 210 39 22 -5 28 -4 14 2 -27 12 148 104 219
115 20 3 42 12 50 19 7 8 34 14 59 14 29 0 50 16 59 43 10 33 17 36 31 15 14
-22 17 -22 18 -2 0 17 14 22 36 15 20 -6 54 2 75 19 38 30 38 30 -1 19 -37
-11 -37 -10 -4 11 20 13 50 18 66 12 17 -6 25 -4 19 6 -6 10 10 21 35 26 48 9
104 -32 85 -62 -6 -10 3 -23 19 -29 17 -7 30 -4 30 6 0 10 18 24 41 31 53 17
38 62 -18 55 -24 -2 -43 5 -43 16 0 12 -10 15 -23 7 -14 -8 -18 -5 -10 7 7 12
2 27 -12 33 -14 6 -4 6 23 0 31 -8 43 -5 33 10 -8 14 -1 17 21 8 23 -8 30 -5
21 9 -8 12 -3 29 10 37 14 9 18 6 9 -9 -8 -13 -4 -23 9 -23 13 0 2 -18 -24
-40 l-47 -41 55 24 c47 20 64 48 58 99 0 6 12 11 27 11 16 0 24 -7 18 -16 -6
-9 0 -17 13 -17 14 0 19 17 13 40 -7 27 -3 35 13 26 38 -24 93 -21 93 6 0 13
-11 29 -25 35 -15 6 -10 11 11 11 22 1 31 11 22 25 -10 16 -3 16 24 1 48 -27
130 10 86 38 -23 14 -22 17 5 18 17 0 43 14 57 30 36 44 58 37 45 -15 -6 -25
-3 -38 6 -30 9 9 19 48 23 88 6 81 36 127 81 127 19 0 26 13 20 39 -7 27 -2
35 17 27 16 -5 28 0 28 13 0 13 21 43 46 67 67 63 185 277 146 262 -23 -9 -18
12 21 81 68 123 73 111 49 -122z"/>
<path d="M2775 9318 c-218 -51 -445 -275 -483 -477 l-12 -68 45 42 c120 113
267 155 535 153 250 -1 262 -3 770 -128 55 -14 117 -33 137 -44 26 -13 33 -12
24 3 -11 18 127 34 195 23 21 -3 75 126 72 172 -1 20 -14 0 -28 -44 l-26 -80
-15 86 c-8 48 -32 106 -53 130 l-38 44 14 -50 c7 -27 17 -63 22 -80 5 -16 -10
4 -33 45 -95 170 -818 346 -1126 273z"/>
<path d="M5432 9320 c-206 -26 -429 -79 -547 -131 -58 -26 -105 -41 -105 -34
0 7 -28 -14 -63 -46 -47 -44 -60 -49 -50 -21 12 32 9 34 -17 12 -17 -14 -36
-60 -43 -102 -15 -99 -47 -81 -49 28 -1 77 -3 80 -20 32 -26 -71 8 -154 74
-179 35 -13 48 -29 40 -49 -7 -17 -17 -43 -24 -60 -7 -16 -2 -30 10 -30 13 0
29 16 36 35 20 54 46 63 147 51 67 -8 129 1 216 31 224 78 570 128 813 119
230 -9 288 -27 425 -129 84 -63 89 -22 14 127 -142 285 -426 399 -857 346z"/>
<path d="M5090 8752 c-33 -15 -78 -46 -99 -71 -37 -41 -34 -40 50 8 85 48 315
79 240 32 -16 -10 -36 -14 -44 -9 -8 5 -20 -1 -27 -12 -7 -11 -23 -15 -34 -7
-13 8 -16 4 -8 -9 10 -16 40 -13 108 13 73 27 118 31 204 19 61 -9 130 -16
155 -16 60 -1 224 -67 330 -133 67 -42 77 -44 49 -13 -78 89 -295 165 -556
196 -298 35 -293 35 -368 2z"/>
<path d="M3130 8741 c-154 -25 -350 -80 -429 -121 -116 -60 -160 -106 -51 -53
131 63 199 84 182 56 -8 -12 -49 -33 -93 -46 -43 -13 -94 -41 -114 -63 -27
-30 -4 -24 95 26 71 36 161 78 200 93 l70 27 -70 -10 c-64 -9 -65 -8 -20 11
27 12 65 17 85 12 19 -5 30 -2 25 7 -15 25 197 47 321 34 72 -7 109 -3 115 13
5 16 39 10 114 -21 100 -43 154 -45 130 -5 -6 9 -26 12 -44 5 -19 -8 -28 -5
-20 7 15 25 5 27 -216 36 -99 4 -225 1 -280 -8z"/>
<path d="M2287 8530 c0 -88 3 -122 8 -74 4 47 4 119 0 160 -5 40 -8 2 -8 -86z"/>
<path d="M3985 8637 c-3 -46 42 -146 75 -167 24 -15 -21 94 -47 113 -10 7 -14
25 -9 40 6 15 37 -26 72 -93 34 -66 62 -106 63 -90 1 90 -147 281 -154 197z"/>
<path d="M5070 8660 c-7 -12 3 -14 24 -7 29 11 31 8 11 -14 -43 -46 -27 -67
20 -27 24 21 12 1 -29 -45 -138 -158 -153 -229 -24 -120 159 136 225 148 157
28 -127 -222 -16 -455 216 -455 193 0 305 234 205 427 -17 32 -30 61 -30 64 0
17 196 -78 240 -117 129 -112 148 -190 67 -265 -64 -59 -50 -62 51 -10 297
151 -58 469 -565 505 -131 10 -255 26 -274 37 -45 24 -54 24 -69 -1z m480
-210 c0 -51 -8 -60 -50 -60 -51 0 -74 45 -52 103 22 57 102 24 102 -43z"/>
<path d="M4713 8645 c-8 -14 -8 -25 1 -25 9 0 4 -8 -10 -17 -33 -21 79 -73
120 -57 15 6 8 12 -15 12 -26 1 -48 22 -61 57 -13 38 -24 47 -35 30z"/>
<path d="M5020 8643 c0 -38 -94 -73 -125 -47 -20 17 -26 13 -26 -17 0 -24 13
-39 34 -39 44 0 152 92 132 112 -8 8 -15 4 -15 -9z"/>
<path d="M3170 8620 c-462 -34 -804 -321 -583 -489 88 -67 159 -71 81 -4 -114
98 44 305 276 360 l54 13 -29 -69 c-53 -127 -15 -309 83 -394 78 -68 288 -23
342 73 71 126 59 314 -25 398 -18 19 -29 38 -24 44 20 20 128 -38 200 -107 95
-92 97 -59 4 62 -72 95 -126 135 -173 130 -14 -2 -107 -9 -206 -17z m140 -170
c0 -51 -8 -60 -50 -60 -57 0 -78 55 -38 102 40 48 88 25 88 -42z"/>
<path d="M5722 8633 c31 -26 256 -126 246 -109 -7 11 -62 42 -121 68 -97 43
-148 60 -125 41z"/>
<path d="M4033 7925 c-101 -155 -260 -465 -246 -479 5 -5 15 9 22 31 9 27 25
37 47 30 29 -9 30 -8 4 11 -26 18 -24 25 15 53 25 17 41 39 35 49 -6 9 -2 23
9 29 10 7 14 27 7 45 -8 20 -5 28 8 20 12 -8 33 14 47 48 14 34 36 72 49 85
26 26 113 213 100 213 -5 0 -48 -61 -97 -135z"/>
<path d="M4011 7775 c-21 -71 -26 -115 -11 -115 9 0 23 27 30 60 8 36 22 55
35 47 12 -8 15 -4 7 10 -19 30 -51 29 -61 -2z"/>
<path d="M3795 7398 c-23 -13 -35 -44 -35 -91 0 -62 4 -68 30 -47 25 20 30 19
30 -8 0 -19 22 -56 49 -83 67 -67 37 -63 -33 5 -31 29 -56 43 -56 31 0 -33
103 -108 133 -97 14 6 31 2 38 -9 6 -10 29 -19 50 -19 22 0 39 -10 39 -21 0
-12 11 -15 25 -7 14 8 -1 -14 -34 -49 -59 -64 -97 -88 -51 -33 32 39 1 38 -55
-1 -40 -28 -43 -28 -33 0 13 32 -170 -66 -282 -152 -37 -28 -49 -33 -33 -12
36 45 13 44 -54 -2 -101 -70 -117 -76 -84 -32 23 30 18 28 -21 -6 -28 -25 -56
-40 -62 -34 -19 18 -170 -167 -217 -267 -60 -125 -74 -285 -31 -347 17 -25 32
-34 32 -19 0 43 110 156 146 150 19 -2 57 24 86 59 69 82 191 184 177 147 -8
-21 17 -16 91 20 149 71 260 107 260 85 0 -26 98 25 182 95 36 31 59 45 51 31
-33 -54 26 -21 87 48 l63 72 59 -72 c58 -70 199 -184 170 -137 -8 13 -4 24 8
24 12 0 17 11 10 25 -7 14 10 -1 39 -32 29 -32 59 -52 65 -45 7 6 25 1 40 -11
64 -53 154 -34 101 21 -37 39 88 -27 158 -83 66 -54 176 -106 157 -75 -16 25
162 -86 225 -141 56 -48 67 -49 53 -4 -6 19 2 13 18 -13 21 -35 32 -41 40 -20
7 18 11 13 12 -14 2 -39 72 -122 97 -115 58 18 61 242 4 360 -72 149 -380 403
-330 272 6 -15 -27 4 -73 43 -101 87 -133 93 -77 14 66 -93 48 -97 -44 -8
-133 127 -281 191 -232 100 16 -29 -4 -20 -65 29 -113 91 -150 113 -127 75 13
-21 5 -20 -32 4 -66 44 -63 50 41 103 140 70 138 194 -5 267 -54 29 -64 27
-168 -32 -61 -34 -105 -53 -98 -41 8 12 -3 21 -25 21 -21 0 -73 24 -116 53
-75 50 -77 50 -38 5 40 -47 40 -47 0 -18 -22 17 -46 38 -53 48 -20 28 -128
-30 -169 -92 -63 -93 -97 -75 -89 49 4 62 4 62 -44 33z m845 -88 c39 -42 43
-55 21 -75 -21 -20 -24 -20 -13 0 8 14 5 25 -7 25 -11 0 -21 12 -21 27 0 15
-20 37 -45 49 -31 14 -35 22 -13 23 17 0 52 -22 78 -49z"/>
<path d="M3890 6412 c-99 -36 -209 -81 -245 -99 -36 -19 -65 -28 -65 -21 0 7
-13 2 -30 -12 -64 -53 -25 -53 75 0 441 236 888 236 1410 -1 69 -31 125 -49
125 -39 0 22 -39 47 -80 52 -16 2 -93 28 -170 58 -406 157 -705 175 -1020 62z"/>
<path d="M3953 5968 c-116 -60 -132 -75 -111 -100 39 -47 255 -132 229 -90
-20 32 1 27 39 -10 46 -47 277 -64 318 -23 16 17 25 36 18 43 -7 6 24 12 70
12 85 0 184 34 184 63 0 9 15 17 34 17 30 0 31 3 5 28 -164 156 -543 185 -786
60z"/>
<path d="M2060 6909 c0 -19 58 -149 66 -149 5 0 -1 36 -13 80 -17 65 -53 112
-53 69z"/>
<path d="M5461 4481 c-26 -16 -25 -21 5 -32 34 -13 34 -16 2 -51 -18 -20 -40
-33 -48 -28 -9 5 -20 -9 -26 -32 -15 -58 -61 -37 -77 34 -7 32 -13 42 -15 22
-1 -20 -9 -32 -18 -27 -20 13 -16 -83 6 -102 9 -8 10 -4 3 9 -17 29 19 54 37
25 25 -39 -30 -80 -77 -57 -39 18 -40 17 -9 -8 41 -33 11 -77 -41 -61 -29 9
-29 8 -3 -11 26 -20 22 -30 -26 -72 -31 -28 -48 -50 -39 -50 33 0 386 397 365
410 -11 7 -15 21 -9 31 14 24 7 23 -30 0z"/>
<path d="M3000 4448 c0 -99 282 -772 312 -743 5 5 -27 83 -72 173 -45 89 -113
259 -153 377 -76 230 -87 253 -87 193z"/>
<path d="M4969 4079 c-6 -10 3 -19 20 -19 17 0 31 -10 31 -21 0 -12 -9 -16
-20 -9 -11 7 -14 -1 -8 -19 7 -17 23 -31 35 -32 13 0 6 -13 -15 -29 -21 -16
-47 -23 -58 -16 -11 7 -15 3 -8 -8 13 -21 -112 -154 -129 -136 -6 5 -10 -3
-10 -20 0 -38 278 211 284 255 3 20 -5 28 -23 21 -15 -5 -28 -1 -28 10 0 28
-56 46 -71 23z"/>
<path d="M4668 3645 c-32 -30 -80 -73 -108 -95 -27 -22 -63 -58 -80 -80 -16
-22 35 18 115 88 80 70 145 131 145 135 0 16 -17 4 -72 -48z"/>
</g>
</svg>
